<svg xmlns="http://www.w3.org/2000/svg" height="24" width="24"><path d="M12.000,3.000 C7.031,3.000,3.000,7.031,3.000,12.000 L3.000,18.984 C3.000,20.109,3.891,21.000 3.891,21.000 L9.000,21.000 L9.000,12.984 L5.016,12.984 L5.016,12.000 C5.016,8.109,8.109,5.016 8.109,5.016 C15.891,5.016,18.984,8.109,18.984,12.000 L18.984,12.984 L15.000,12.984 L15.000,21.000 L18.984,21.000 C20.109,21.000,21.000,20.109,21.000,18.984 L21.000,12.000 C21.000,7.031,16.969,3.000 16.969,3.000 M6.984,15.000 L6.984,18.984 L5.016,18.984 L5.016,15.000 L6.984,15.000 M18.984,18.984 L17.016,18.984 L17.016,15.000 L18.984,15.000 L18.984,18.984 Z"/></svg>