<svg xmlns="http://www.w3.org/2000/svg" height="24" width="24"><path d="M12.000,6.576 Q12.000,6.240,12.192,5.952 Q12.384,5.664,12.672,5.520 Q12.960,5.376,13.320,5.400 Q13.680,5.424,13.920,5.616 L20.976,10.800 Q21.600,11.232,21.600,12.000 Q21.600,12.768,20.976,13.200 L13.920,18.384 Q13.680,18.576,13.320,18.600 Q12.960,18.624,12.672,18.480 Q12.384,18.336,12.192,18.048 Q12.000,17.760,12.000,17.424 L12.000,13.632 L5.520,18.384 Q5.280,18.576,4.920,18.600 Q4.560,18.624,4.272,18.480 Q3.984,18.336,3.792,18.048 Q3.600,17.760,3.600,17.424 L3.600,6.576 Q3.600,6.240,3.792,5.952 Q3.984,5.664,4.272,5.520 Q4.560,5.376,4.920,5.400 Q5.280,5.424,5.520,5.616 L12.000,10.368 Z"/></svg>