<svg xmlns="http://www.w3.org/2000/svg" height="24" width="24"><path d="M6.624,12.000 Q6.624,12.000,6.576,12.000 Q6.576,13.488,7.320,14.712 Q8.064,15.936,9.288,16.656 Q10.512,17.376,12.000,17.376 Q13.488,17.376,14.712,16.656 Q15.936,15.936,16.680,14.712 Q17.424,13.488,17.376,12.000 Q17.376,11.760,17.568,11.568 Q17.760,11.376,18.000,11.376 Q18.240,11.376,18.432,11.568 Q18.624,11.760,18.576,12.000 Q18.624,13.680,17.832,15.120 Q17.040,16.560,15.648,17.496 Q14.256,18.432,12.624,18.576 Q12.624,18.576,12.624,20.976 Q12.576,21.264,12.408,21.432 Q12.240,21.600,12.000,21.600 Q11.760,21.600,11.568,21.432 Q11.376,21.264,11.376,20.976 Q11.376,20.976,11.376,18.576 Q9.744,18.432,8.352,17.496 Q6.960,16.560,6.168,15.120 Q5.376,13.680,5.424,12.000 Q5.424,11.760,5.592,11.568 Q5.760,11.376,6.000,11.376 Q6.240,11.376,6.408,11.568 Q6.576,11.760,6.624,12.000 M15.600,12.000 Q15.600,13.488,14.544,14.544 Q13.488,15.600,12.000,15.600 Q10.512,15.600,9.456,14.544 Q8.400,13.488,8.400,12.000 L8.400,6.000 Q8.400,4.512,9.456,3.456 Q10.512,2.400,12.000,2.400 Q13.488,2.400,14.544,3.456 Q15.600,4.512,15.600,6.000 Z"/></svg>