<svg xmlns="http://www.w3.org/2000/svg" height="24" width="24"><path d="M15.600,12.000 Q15.600,12.480,15.456,12.912 L8.400,5.856 Q8.448,4.368,9.528,3.360 Q10.608,2.352,12.072,2.376 Q13.536,2.400,14.568,3.456 Q15.600,4.512,15.600,6.000 M8.400,9.264 L2.592,3.408 Q2.400,3.264,2.400,3.000 Q2.400,2.736,2.568,2.568 Q2.736,2.400,3.000,2.400 Q3.264,2.400,3.408,2.592 Q3.408,2.592,21.408,20.592 Q21.600,20.736,21.600,21.000 Q21.600,21.264,21.432,21.432 Q21.264,21.600,21.000,21.600 Q20.736,21.600,20.592,21.408 Q20.592,21.408,16.224,17.088 Q14.640,18.384,12.624,18.576 Q12.624,18.576,12.624,20.976 Q12.624,21.264,12.432,21.432 Q12.240,21.600,12.000,21.600 Q11.760,21.600,11.592,21.432 Q11.424,21.264,11.424,20.976 Q11.424,20.976,11.424,18.576 Q9.744,18.432,8.352,17.520 Q6.960,16.608,6.192,15.144 Q5.424,13.680,5.424,12.000 Q5.424,11.760,5.592,11.592 Q5.760,11.424,6.000,11.424 Q6.240,11.424,6.408,11.592 Q6.576,11.760,6.624,12.000 Q6.624,13.536,7.440,14.856 Q8.256,16.176,9.648,16.848 Q11.040,17.520,12.600,17.352 Q14.160,17.184,15.360,16.224 Q15.360,16.224,14.064,14.928 Q13.248,15.504,12.240,15.576 Q11.232,15.648,10.344,15.192 Q9.456,14.736,8.928,13.872 Q8.400,13.008,8.400,12.000 Q8.400,12.000,8.400,9.264 M17.760,15.216 Q17.760,15.216,16.896,14.304 Q17.424,13.248,17.376,12.000 Q17.376,11.760,17.568,11.568 Q17.760,11.376,18.000,11.376 Q18.240,11.376,18.432,11.568 Q18.624,11.760,18.624,12.000 Q18.624,13.728,17.760,15.216 Z"/></svg>