<svg xmlns="http://www.w3.org/2000/svg" height="24" width="24"><path d="M6.000,2.400 Q6.000,2.400,8.400,2.400 Q9.408,2.400,10.104,3.096 Q10.800,3.792,10.800,4.800 Q10.800,4.800,10.800,19.200 Q10.800,20.208,10.104,20.904 Q9.408,21.600,8.400,21.600 Q8.400,21.600,6.000,21.600 Q4.992,21.600,4.296,20.904 Q3.600,20.208,3.600,19.200 Q3.600,19.200,3.600,4.800 Q3.600,3.792,4.296,3.096 Q4.992,2.400,6.000,2.400 M15.600,2.400 Q15.600,2.400,18.000,2.400 Q19.008,2.400,19.704,3.096 Q20.400,3.792,20.400,4.800 Q20.400,4.800,20.400,19.200 Q20.400,20.208,19.704,20.904 Q19.008,21.600,18.000,21.600 Q18.000,21.600,15.600,21.600 Q14.592,21.600,13.896,20.904 Q13.200,20.208,13.200,19.200 Q13.200,19.200,13.200,4.800 Q13.200,3.792,13.896,3.096 Q14.592,2.400,15.600,2.400 Z"/></svg>