<svg xmlns="http://www.w3.org/2000/svg" height="24" width="24"><path d="M9.600,8.400 Q9.600,7.392,10.296,6.696 Q10.992,6.000,12.000,6.000 Q13.008,6.000,13.704,6.696 Q14.400,7.392,14.400,8.400 Q14.400,9.408,13.704,10.104 Q13.008,10.800,12.000,10.800 Q10.992,10.800,10.296,10.104 Q9.600,9.408,9.600,8.400 M9.024,12.000 L15.024,12.000 Q15.744,12.000,16.272,12.528 Q16.800,13.056,16.800,13.824 Q16.800,15.792,15.360,16.944 Q14.016,18.000,12.000,18.000 Q9.984,18.000,8.640,16.944 Q7.200,15.744,7.200,13.776 Q7.200,13.056,7.728,12.528 Q8.256,12.000,9.024,12.000 M12.000,2.400 Q14.592,2.400,16.800,3.696 Q19.008,4.992,20.304,7.200 Q21.600,9.408,21.600,12.000 Q21.600,14.592,20.304,16.800 Q19.008,19.008,16.800,20.304 Q14.592,21.600,12.000,21.600 Q9.408,21.600,7.200,20.304 Q4.992,19.008,3.696,16.800 Q2.400,14.592,2.400,12.000 Q2.400,9.408,3.696,7.200 Q4.992,4.992,7.200,3.696 Q9.408,2.400,12.000,2.400 M3.600,12.000 Q3.600,14.304,4.728,16.224 Q5.856,18.144,7.776,19.272 Q9.696,20.400,12.000,20.400 Q14.304,20.400,16.224,19.272 Q18.144,18.144,19.272,16.224 Q20.400,14.304,20.400,12.000 Q20.400,9.696,19.272,7.776 Q18.144,5.856,16.224,4.728 Q14.304,3.600,12.000,3.600 Q9.696,3.600,7.776,4.728 Q5.856,5.856,4.728,7.776 Q3.600,9.696,3.600,12.000 Z"/></svg>