<svg xmlns="http://www.w3.org/2000/svg" height="24" width="24"><path d="M12.000,6.576 Q12.000,6.576,12.000,10.368 L18.480,5.616 Q18.768,5.424,19.104,5.400 Q19.440,5.376,19.752,5.520 Q20.064,5.664,20.232,5.952 Q20.400,6.240,20.400,6.576 Q20.400,6.576,20.400,17.424 Q20.400,17.760,20.232,18.048 Q20.064,18.336,19.752,18.480 Q19.440,18.624,19.104,18.600 Q18.768,18.576,18.480,18.384 Q18.480,18.384,12.000,13.632 L12.000,17.424 Q12.000,17.760,11.832,18.048 Q11.664,18.336,11.352,18.480 Q11.040,18.624,10.704,18.600 Q10.368,18.576,10.080,18.384 Q10.080,18.384,3.024,13.200 Q2.400,12.768,2.400,12.000 Q2.400,11.232,3.024,10.800 Q3.024,10.800,10.080,5.616 Q10.368,5.424,10.704,5.400 Q11.040,5.376,11.352,5.520 Q11.664,5.664,11.832,5.952 Q12.000,6.240,12.000,6.576 M10.080,5.616 L10.464,6.096 Z"/></svg>