<svg xmlns="http://www.w3.org/2000/svg" height="24" width="24"><path d="M14.400,3.600 Q14.400,3.600,14.400,20.400 Q14.400,20.880,14.064,21.216 Q13.728,21.552,13.248,21.576 Q12.768,21.600,12.384,21.264 Q12.384,21.264,7.728,16.944 Q7.584,16.800,7.344,16.800 Q7.344,16.800,4.224,16.800 Q3.456,16.800,2.928,16.272 Q2.400,15.744,2.400,14.976 Q2.400,14.976,2.400,9.024 Q2.400,8.256,2.928,7.728 Q3.456,7.200,4.224,7.200 Q4.224,7.200,7.344,7.200 Q7.584,7.200,7.728,7.056 Q7.728,7.056,12.384,2.736 Q12.768,2.400,13.248,2.424 Q13.728,2.448,14.064,2.784 Q14.400,3.120,14.400,3.600 M18.288,5.568 Q18.480,5.376,18.744,5.400 Q19.008,5.424,19.152,5.616 Q20.736,7.392,21.312,9.696 Q21.888,12.000,21.312,14.304 Q20.736,16.608,19.152,18.384 Q18.912,18.672,18.576,18.600 Q18.240,18.528,18.120,18.192 Q18.000,17.856,18.240,17.616 Q19.680,16.032,20.160,14.016 Q20.640,12.000,20.160,9.984 Q19.680,7.968,18.240,6.384 Q18.096,6.192,18.096,5.952 Q18.096,5.712,18.288,5.568 M16.896,15.504 Q16.656,15.408,16.608,15.168 Q16.560,14.928,16.656,14.688 Q17.376,13.440,17.376,12.000 Q17.376,10.560,16.656,9.312 Q16.464,8.976,16.656,8.664 Q16.848,8.352,17.208,8.376 Q17.568,8.400,17.712,8.688 Q18.576,10.224,18.576,12.000 Q18.576,13.776,17.712,15.312 Q17.568,15.504,17.328,15.576 Q17.088,15.648,16.896,15.504 Z"/></svg>