<svg xmlns="http://www.w3.org/2000/svg" height="24" width="24"><path d="M12.000,14.016 C13.641,14.016,15.000,12.656,15.000,11.016 L15.000,5.016 C15.000,3.328,13.641,2.016 13.641,2.016 C10.359,2.016,9.000,3.328,9.000,5.016 L9.000,11.016 C9.000,12.656,10.359,14.016 10.359,14.016 M11.016,5.016 C11.016,4.453,11.438,3.984 11.438,3.984 C12.563,3.984,12.984,4.453,12.984,5.016 L12.984,11.016 C12.984,11.531,12.563,12.000 12.563,12.000 C11.438,12.000,11.016,11.531,11.016,11.016 L11.016,5.016 M17.016,11.016 C17.016,13.781,14.766,15.984 14.766,15.984 C9.234,15.984,6.984,13.781,6.984,11.016 L5.016,11.016 C5.016,14.531,7.594,17.438,7.594,17.906 L11.016,21.000 L12.984,21.000 L12.984,17.906 C16.406,17.438,18.984,14.531,18.984,11.016 L17.016,11.016 Z"/></svg>